<svg xmlns="http://www.w3.org/2000/svg" viewBox="0 0 128 128" role="img" aria-label="J-tag">
  <defs>
    <linearGradient id="bg" x1="20" y1="12" x2="112" y2="120" gradientUnits="userSpaceOnUse">
      <stop stop-color="#ff3341"/>
      <stop offset=".42" stop-color="#d80616"/>
      <stop offset="1" stop-color="#101b2a"/>
    </linearGradient>
    <radialGradient id="aura" cx="35" cy="24" r="92" gradientUnits="userSpaceOnUse">
      <stop stop-color="#ffffff" stop-opacity=".72"/>
      <stop offset=".38" stop-color="#ff8f98" stop-opacity=".2"/>
      <stop offset="1" stop-color="#ffffff" stop-opacity="0"/>
    </radialGradient>
    <linearGradient id="edge" x1="18" y1="6" x2="104" y2="114" gradientUnits="userSpaceOnUse">
      <stop stop-color="#ffffff" stop-opacity=".5"/>
      <stop offset=".45" stop-color="#ffffff" stop-opacity=".08"/>
      <stop offset="1" stop-color="#ffffff" stop-opacity=".2"/>
    </linearGradient>
    <filter id="shadow" x="-30%" y="-30%" width="160%" height="170%" color-interpolation-filters="sRGB">
      <feDropShadow dx="0" dy="16" stdDeviation="12" flood-color="#000000" flood-opacity=".48"/>
      <feDropShadow dx="0" dy="0" stdDeviation="10" flood-color="#e50914" flood-opacity=".22"/>
    </filter>
  </defs>
  <rect width="128" height="128" rx="31" fill="#080808"/>
  <g filter="url(#shadow)">
    <rect x="12" y="10" width="104" height="108" rx="27" fill="url(#bg)"/>
    <rect x="12" y="10" width="104" height="108" rx="27" fill="url(#aura)"/>
    <rect x="13" y="11" width="102" height="106" rx="26" fill="none" stroke="url(#edge)" stroke-width="2"/>
    <path d="M83 30v48c0 18-11 29-29 29-10 0-18-3-25-8l10-17c4 4 9 6 14 6 7 0 11-4 11-12V30h19Z" fill="#fff"/>
    <path d="M83 30v48c0 18-11 29-29 29-10 0-18-3-25-8l10-17c4 4 9 6 14 6 7 0 11-4 11-12V30h19Z" fill="#ffffff" opacity=".3" transform="translate(3 2)"/>
    <path d="M30 33c16-10 37-13 63-9" fill="none" stroke="#ffffff" stroke-linecap="round" stroke-width="4" opacity=".2"/>
    <path d="M29 105c22 10 50 10 74-5" fill="none" stroke="#08101d" stroke-linecap="round" stroke-width="5" opacity=".28"/>
  </g>
</svg>
