<svg xmlns="http://www.w3.org/2000/svg" viewBox="0 0 420 128" role="img" aria-label="J-tag">
  <defs>
    <linearGradient id="mark-bg" x1="20" y1="12" x2="112" y2="120" gradientUnits="userSpaceOnUse">
      <stop stop-color="#ff3341"/>
      <stop offset=".42" stop-color="#d80616"/>
      <stop offset="1" stop-color="#101b2a"/>
    </linearGradient>
    <radialGradient id="mark-aura" cx="35" cy="24" r="92" gradientUnits="userSpaceOnUse">
      <stop stop-color="#ffffff" stop-opacity=".72"/>
      <stop offset=".38" stop-color="#ff8f98" stop-opacity=".2"/>
      <stop offset="1" stop-color="#ffffff" stop-opacity="0"/>
    </radialGradient>
    <linearGradient id="mark-edge" x1="18" y1="6" x2="104" y2="114" gradientUnits="userSpaceOnUse">
      <stop stop-color="#ffffff" stop-opacity=".5"/>
      <stop offset=".45" stop-color="#ffffff" stop-opacity=".08"/>
      <stop offset="1" stop-color="#ffffff" stop-opacity=".2"/>
    </linearGradient>
    <filter id="logo-shadow" x="-20%" y="-25%" width="140%" height="160%" color-interpolation-filters="sRGB">
      <feDropShadow dx="0" dy="16" stdDeviation="12" flood-color="#000000" flood-opacity=".42"/>
      <feDropShadow dx="0" dy="0" stdDeviation="12" flood-color="#e50914" flood-opacity=".18"/>
    </filter>
  </defs>
  <g filter="url(#logo-shadow)">
    <rect x="0" y="0" width="128" height="128" rx="31" fill="#080808"/>
    <rect x="12" y="10" width="104" height="108" rx="27" fill="url(#mark-bg)"/>
    <rect x="12" y="10" width="104" height="108" rx="27" fill="url(#mark-aura)"/>
    <rect x="13" y="11" width="102" height="106" rx="26" fill="none" stroke="url(#mark-edge)" stroke-width="2"/>
    <path d="M83 30v48c0 18-11 29-29 29-10 0-18-3-25-8l10-17c4 4 9 6 14 6 7 0 11-4 11-12V30h19Z" fill="#fff"/>
    <path d="M83 30v48c0 18-11 29-29 29-10 0-18-3-25-8l10-17c4 4 9 6 14 6 7 0 11-4 11-12V30h19Z" fill="#ffffff" opacity=".28" transform="translate(3 2)"/>
    <path d="M30 33c16-10 37-13 63-9" fill="none" stroke="#ffffff" stroke-linecap="round" stroke-width="4" opacity=".2"/>
    <path d="M29 105c22 10 50 10 74-5" fill="none" stroke="#08101d" stroke-linecap="round" stroke-width="5" opacity=".28"/>
  </g>
  <g fill="#fff">
    <path d="M172 29v45c0 20-13 32-33 32-9 0-17-3-24-8l10-17c4 4 9 6 14 6 8 0 12-5 12-14V29h21Z"/>
    <path d="M188 59h43v17h-43V59Z"/>
    <path d="M263 48h-26V29h75v19h-27v56h-22V48Z"/>
    <path d="M341 46c19 0 31 11 31 30v28h-18v-6c-4 5-11 8-20 8-14 0-23-8-23-20 0-13 9-20 28-20h13c-1-6-6-9-15-9-6 0-13 2-18 6l-7-15c8-5 18-8 29-8Zm-2 46c6 0 11-3 13-8v-5h-11c-8 0-11 3-11 7s3 6 9 6Z"/>
    <path d="M419 45v51c0 23-14 34-39 34-13 0-25-3-33-10l8-16c6 5 15 8 23 8 13 0 19-6 19-17v-2c-5 5-12 8-20 8-16 0-30-11-30-29s14-29 30-29c9 0 16 3 21 9v-7h21Zm-20 27c0-8-6-14-15-14s-15 6-15 14 6 14 15 14 15-6 15-14Z"/>
  </g>
  <text x="149" y="119" fill="#8f8f8f" font-family="Trebuchet MS, Verdana, sans-serif" font-size="15" font-weight="700" letter-spacing="0">casa, lembretes e emergencia por NFC</text>
</svg>
